<mxfile host="Electron" modified="2024-05-22T17:14:26.609Z" agent="Mozilla/5.0 (Windows NT 10.0; Win64; x64) AppleWebKit/537.36 (KHTML, like Gecko) draw.io/24.0.4 Chrome/120.0.6099.109 Electron/28.1.0 Safari/537.36" etag="uK5jBfq06Mlih9y4F-px" version="24.0.4" type="device">
  <diagram name="Страница — 1" id="Vegg4m-cvC-e15q1sq7E">
    <mxGraphModel dx="2577" dy="1035" grid="1" gridSize="10" guides="1" tooltips="1" connect="1" arrows="1" fold="1" page="1" pageScale="1" pageWidth="827" pageHeight="1169" math="0" shadow="0">
      <root>
        <mxCell id="0" />
        <mxCell id="1" parent="0" />
        <mxCell id="9PNcN-l9IglQEQbCvyNj-1" value="Регистрация" style="swimlane;childLayout=stackLayout;horizontal=1;startSize=50;horizontalStack=0;rounded=1;fontSize=14;fontStyle=0;strokeWidth=2;resizeParent=0;resizeLast=1;shadow=0;dashed=0;align=center;arcSize=4;whiteSpace=wrap;html=1;" parent="1" vertex="1">
          <mxGeometry x="-50" y="140" width="250" height="120" as="geometry">
            <mxRectangle x="-30" y="120" width="180" height="50" as="alternateBounds" />
          </mxGeometry>
        </mxCell>
        <mxCell id="9PNcN-l9IglQEQbCvyNj-2" value="entry/полное_имя&lt;div&gt;entry/возраст&lt;/div&gt;&lt;div&gt;entry/номер телефона/email&lt;/div&gt;&lt;div&gt;exit/проверка корректности данных&lt;/div&gt;" style="align=left;strokeColor=none;fillColor=none;spacingLeft=4;fontSize=12;verticalAlign=top;resizable=0;rotatable=0;part=1;html=1;" parent="9PNcN-l9IglQEQbCvyNj-1" vertex="1">
          <mxGeometry y="50" width="250" height="70" as="geometry" />
        </mxCell>
        <mxCell id="9PNcN-l9IglQEQbCvyNj-3" value="Выбор услуги/Подача заявки" style="swimlane;childLayout=stackLayout;horizontal=1;startSize=50;horizontalStack=0;rounded=1;fontSize=14;fontStyle=0;strokeWidth=2;resizeParent=0;resizeLast=1;shadow=0;dashed=0;align=center;arcSize=4;whiteSpace=wrap;html=1;" parent="1" vertex="1">
          <mxGeometry x="360" y="260" width="360" height="150" as="geometry" />
        </mxCell>
        <mxCell id="9PNcN-l9IglQEQbCvyNj-4" value="do/получение прайс-листа&lt;div&gt;do/выбор услуги/тарифа&lt;/div&gt;&lt;div&gt;do/оставление заявки&lt;/div&gt;&lt;div&gt;do/оставить/отменить заявку&lt;/div&gt;" style="align=left;strokeColor=none;fillColor=none;spacingLeft=4;fontSize=12;verticalAlign=top;resizable=0;rotatable=0;part=1;html=1;" parent="9PNcN-l9IglQEQbCvyNj-3" vertex="1">
          <mxGeometry y="50" width="360" height="100" as="geometry" />
        </mxCell>
        <mxCell id="9PNcN-l9IglQEQbCvyNj-9" value="Статус заявки" style="swimlane;childLayout=stackLayout;horizontal=1;startSize=50;horizontalStack=0;rounded=1;fontSize=14;fontStyle=0;strokeWidth=2;resizeParent=0;resizeLast=1;shadow=0;dashed=0;align=center;arcSize=4;whiteSpace=wrap;html=1;" parent="1" vertex="1">
          <mxGeometry x="891" y="80" width="350" height="150" as="geometry" />
        </mxCell>
        <mxCell id="9PNcN-l9IglQEQbCvyNj-10" value="&lt;div&gt;&lt;span style=&quot;background-color: initial;&quot;&gt;entry/показать текущий статус&lt;/span&gt;&lt;/div&gt;&lt;div&gt;&lt;span style=&quot;background-color: initial;&quot;&gt;do/изменить статус заявки&lt;/span&gt;&lt;br&gt;&lt;/div&gt;" style="align=left;strokeColor=none;fillColor=none;spacingLeft=4;fontSize=12;verticalAlign=top;resizable=0;rotatable=0;part=1;html=1;" parent="9PNcN-l9IglQEQbCvyNj-9" vertex="1">
          <mxGeometry y="50" width="350" height="100" as="geometry" />
        </mxCell>
        <mxCell id="9PNcN-l9IglQEQbCvyNj-16" value="" style="rhombus;whiteSpace=wrap;html=1;" parent="1" vertex="1">
          <mxGeometry x="-70" y="512.5" width="200" height="45" as="geometry" />
        </mxCell>
        <mxCell id="9PNcN-l9IglQEQbCvyNj-17" value="" style="endArrow=classic;html=1;rounded=0;exitX=0.365;exitY=1;exitDx=0;exitDy=0;exitPerimeter=0;entryX=0.473;entryY=0.015;entryDx=0;entryDy=0;entryPerimeter=0;" parent="1" source="9PNcN-l9IglQEQbCvyNj-2" target="5eiR-fo7dtzpFfoEL9Su-3" edge="1">
          <mxGeometry width="50" height="50" relative="1" as="geometry">
            <mxPoint x="30" y="400" as="sourcePoint" />
            <mxPoint x="11" y="320" as="targetPoint" />
          </mxGeometry>
        </mxCell>
        <mxCell id="9PNcN-l9IglQEQbCvyNj-18" value="" style="endArrow=classic;html=1;rounded=0;entryX=-0.008;entryY=0.18;entryDx=0;entryDy=0;entryPerimeter=0;exitX=1;exitY=0.5;exitDx=0;exitDy=0;" parent="1" source="9PNcN-l9IglQEQbCvyNj-16" target="9PNcN-l9IglQEQbCvyNj-4" edge="1">
          <mxGeometry width="50" height="50" relative="1" as="geometry">
            <mxPoint x="160" y="530" as="sourcePoint" />
            <mxPoint x="210" y="480" as="targetPoint" />
          </mxGeometry>
        </mxCell>
        <mxCell id="zX8dJjemgJUIwj8gThUD-1" value="" style="ellipse;html=1;shape=endState;fillColor=#000000;strokeColor=#ff0000;" parent="1" vertex="1">
          <mxGeometry x="-270" y="165" width="70" height="70" as="geometry" />
        </mxCell>
        <mxCell id="zX8dJjemgJUIwj8gThUD-2" value="" style="endArrow=classic;html=1;rounded=0;exitX=1;exitY=0.5;exitDx=0;exitDy=0;entryX=-0.005;entryY=0.091;entryDx=0;entryDy=0;entryPerimeter=0;" parent="1" source="zX8dJjemgJUIwj8gThUD-1" target="9PNcN-l9IglQEQbCvyNj-2" edge="1">
          <mxGeometry width="50" height="50" relative="1" as="geometry">
            <mxPoint x="-250" y="230" as="sourcePoint" />
            <mxPoint x="-200" y="180" as="targetPoint" />
          </mxGeometry>
        </mxCell>
        <mxCell id="zX8dJjemgJUIwj8gThUD-3" value="" style="endArrow=none;html=1;rounded=0;entryX=0;entryY=0.5;entryDx=0;entryDy=0;" parent="1" target="9PNcN-l9IglQEQbCvyNj-16" edge="1">
          <mxGeometry width="50" height="50" relative="1" as="geometry">
            <mxPoint x="-230" y="540" as="sourcePoint" />
            <mxPoint x="90" y="500" as="targetPoint" />
          </mxGeometry>
        </mxCell>
        <mxCell id="zX8dJjemgJUIwj8gThUD-5" value="" style="endArrow=classic;html=1;rounded=0;entryX=0;entryY=1;entryDx=0;entryDy=0;" parent="1" target="9PNcN-l9IglQEQbCvyNj-2" edge="1">
          <mxGeometry width="50" height="50" relative="1" as="geometry">
            <mxPoint x="-230" y="540" as="sourcePoint" />
            <mxPoint x="-140" y="350" as="targetPoint" />
          </mxGeometry>
        </mxCell>
        <mxCell id="zX8dJjemgJUIwj8gThUD-6" value="Чат клиента с менеджером" style="swimlane;childLayout=stackLayout;horizontal=1;startSize=50;horizontalStack=0;rounded=1;fontSize=14;fontStyle=0;strokeWidth=2;resizeParent=0;resizeLast=1;shadow=0;dashed=0;align=center;arcSize=4;whiteSpace=wrap;html=1;" parent="1" vertex="1">
          <mxGeometry x="360" y="540" width="360" height="150" as="geometry" />
        </mxCell>
        <mxCell id="zX8dJjemgJUIwj8gThUD-7" value="entry/вопрос&lt;div&gt;do/открытие чата&lt;/div&gt;&lt;div&gt;do/решение вопроса&lt;/div&gt;&lt;div&gt;exit/закрытие чата&lt;/div&gt;" style="align=left;strokeColor=none;fillColor=none;spacingLeft=4;fontSize=12;verticalAlign=top;resizable=0;rotatable=0;part=1;html=1;" parent="zX8dJjemgJUIwj8gThUD-6" vertex="1">
          <mxGeometry y="50" width="360" height="100" as="geometry" />
        </mxCell>
        <mxCell id="zX8dJjemgJUIwj8gThUD-9" value="" style="endArrow=classic;html=1;rounded=0;exitX=1;exitY=0.5;exitDx=0;exitDy=0;entryX=-0.013;entryY=0.191;entryDx=0;entryDy=0;entryPerimeter=0;" parent="1" source="9PNcN-l9IglQEQbCvyNj-16" target="zX8dJjemgJUIwj8gThUD-6" edge="1">
          <mxGeometry width="50" height="50" relative="1" as="geometry">
            <mxPoint x="180" y="530" as="sourcePoint" />
            <mxPoint x="230" y="480" as="targetPoint" />
          </mxGeometry>
        </mxCell>
        <mxCell id="zX8dJjemgJUIwj8gThUD-11" value="" style="rhombus;whiteSpace=wrap;html=1;" parent="1" vertex="1">
          <mxGeometry x="407.5" y="780" width="265" height="60" as="geometry" />
        </mxCell>
        <mxCell id="zX8dJjemgJUIwj8gThUD-12" value="" style="endArrow=classic;html=1;rounded=0;entryX=0.5;entryY=0;entryDx=0;entryDy=0;exitX=0.5;exitY=1;exitDx=0;exitDy=0;" parent="1" source="zX8dJjemgJUIwj8gThUD-7" target="zX8dJjemgJUIwj8gThUD-11" edge="1">
          <mxGeometry width="50" height="50" relative="1" as="geometry">
            <mxPoint x="550" y="760" as="sourcePoint" />
            <mxPoint x="600" y="710" as="targetPoint" />
          </mxGeometry>
        </mxCell>
        <mxCell id="zX8dJjemgJUIwj8gThUD-13" value="" style="endArrow=none;html=1;rounded=0;exitX=1;exitY=0.5;exitDx=0;exitDy=0;" parent="1" source="zX8dJjemgJUIwj8gThUD-11" edge="1">
          <mxGeometry width="50" height="50" relative="1" as="geometry">
            <mxPoint x="760" y="810" as="sourcePoint" />
            <mxPoint x="830" y="810" as="targetPoint" />
          </mxGeometry>
        </mxCell>
        <mxCell id="zX8dJjemgJUIwj8gThUD-14" value="" style="endArrow=none;html=1;rounded=0;" parent="1" edge="1">
          <mxGeometry width="50" height="50" relative="1" as="geometry">
            <mxPoint x="830" y="810" as="sourcePoint" />
            <mxPoint x="830" y="440" as="targetPoint" />
          </mxGeometry>
        </mxCell>
        <mxCell id="zX8dJjemgJUIwj8gThUD-15" value="" style="endArrow=classic;html=1;rounded=0;entryX=1;entryY=1;entryDx=0;entryDy=0;" parent="1" target="9PNcN-l9IglQEQbCvyNj-4" edge="1">
          <mxGeometry width="50" height="50" relative="1" as="geometry">
            <mxPoint x="830" y="440" as="sourcePoint" />
            <mxPoint x="770" y="430" as="targetPoint" />
          </mxGeometry>
        </mxCell>
        <mxCell id="zX8dJjemgJUIwj8gThUD-17" value="[Да]" style="text;html=1;align=center;verticalAlign=middle;whiteSpace=wrap;rounded=0;rotation=0;" parent="1" vertex="1">
          <mxGeometry x="730" y="770" width="60" height="30" as="geometry" />
        </mxCell>
        <mxCell id="zX8dJjemgJUIwj8gThUD-18" value="" style="endArrow=none;html=1;rounded=0;entryX=0;entryY=0.5;entryDx=0;entryDy=0;" parent="1" target="zX8dJjemgJUIwj8gThUD-11" edge="1">
          <mxGeometry width="50" height="50" relative="1" as="geometry">
            <mxPoint x="270" y="810" as="sourcePoint" />
            <mxPoint x="380" y="820" as="targetPoint" />
          </mxGeometry>
        </mxCell>
        <mxCell id="zX8dJjemgJUIwj8gThUD-19" value="[Нет]" style="text;html=1;align=center;verticalAlign=middle;whiteSpace=wrap;rounded=0;rotation=0;" parent="1" vertex="1">
          <mxGeometry x="310" y="770" width="60" height="30" as="geometry" />
        </mxCell>
        <mxCell id="zX8dJjemgJUIwj8gThUD-23" value="" style="endArrow=classic;html=1;rounded=0;entryX=0.5;entryY=0;entryDx=0;entryDy=0;exitX=0.5;exitY=1;exitDx=0;exitDy=0;" parent="1" source="9PNcN-l9IglQEQbCvyNj-3" target="zX8dJjemgJUIwj8gThUD-6" edge="1">
          <mxGeometry width="50" height="50" relative="1" as="geometry">
            <mxPoint x="542" y="490" as="sourcePoint" />
            <mxPoint x="550" y="490" as="targetPoint" />
          </mxGeometry>
        </mxCell>
        <mxCell id="zX8dJjemgJUIwj8gThUD-24" value="" style="rhombus;whiteSpace=wrap;html=1;" parent="1" vertex="1">
          <mxGeometry x="416.5" y="102.5" width="256" height="45" as="geometry" />
        </mxCell>
        <mxCell id="zX8dJjemgJUIwj8gThUD-25" value="" style="endArrow=classic;html=1;rounded=0;entryX=0.5;entryY=1;entryDx=0;entryDy=0;exitX=0.522;exitY=-0.011;exitDx=0;exitDy=0;exitPerimeter=0;" parent="1" source="9PNcN-l9IglQEQbCvyNj-3" target="zX8dJjemgJUIwj8gThUD-24" edge="1">
          <mxGeometry width="50" height="50" relative="1" as="geometry">
            <mxPoint x="500" y="250" as="sourcePoint" />
            <mxPoint x="550" y="200" as="targetPoint" />
          </mxGeometry>
        </mxCell>
        <mxCell id="zX8dJjemgJUIwj8gThUD-26" value="" style="endArrow=classic;html=1;rounded=0;exitX=0.975;exitY=0.531;exitDx=0;exitDy=0;exitPerimeter=0;entryX=0;entryY=0;entryDx=0;entryDy=0;" parent="1" source="zX8dJjemgJUIwj8gThUD-24" target="9PNcN-l9IglQEQbCvyNj-10" edge="1">
          <mxGeometry width="50" height="50" relative="1" as="geometry">
            <mxPoint x="710" y="160" as="sourcePoint" />
            <mxPoint x="760" y="110" as="targetPoint" />
          </mxGeometry>
        </mxCell>
        <mxCell id="zX8dJjemgJUIwj8gThUD-27" value="[Да]" style="text;html=1;align=center;verticalAlign=middle;whiteSpace=wrap;rounded=0;rotation=0;" parent="1" vertex="1">
          <mxGeometry x="730" y="90" width="60" height="30" as="geometry" />
        </mxCell>
        <mxCell id="zX8dJjemgJUIwj8gThUD-28" value="" style="endArrow=none;html=1;rounded=0;entryX=0;entryY=0.5;entryDx=0;entryDy=0;" parent="1" target="zX8dJjemgJUIwj8gThUD-24" edge="1">
          <mxGeometry width="50" height="50" relative="1" as="geometry">
            <mxPoint x="300" y="125" as="sourcePoint" />
            <mxPoint x="360" y="80" as="targetPoint" />
          </mxGeometry>
        </mxCell>
        <mxCell id="zX8dJjemgJUIwj8gThUD-29" value="[Нет]" style="text;html=1;align=center;verticalAlign=middle;whiteSpace=wrap;rounded=0;rotation=0;" parent="1" vertex="1">
          <mxGeometry x="340" y="80" width="60" height="30" as="geometry" />
        </mxCell>
        <mxCell id="zX8dJjemgJUIwj8gThUD-30" value="" style="rhombus;whiteSpace=wrap;html=1;" parent="1" vertex="1">
          <mxGeometry x="970" y="345" width="256" height="45" as="geometry" />
        </mxCell>
        <mxCell id="zX8dJjemgJUIwj8gThUD-31" value="" style="endArrow=classic;html=1;rounded=0;exitX=0.539;exitY=0.996;exitDx=0;exitDy=0;exitPerimeter=0;entryX=0.5;entryY=0;entryDx=0;entryDy=0;" parent="1" source="9PNcN-l9IglQEQbCvyNj-10" target="zX8dJjemgJUIwj8gThUD-30" edge="1">
          <mxGeometry width="50" height="50" relative="1" as="geometry">
            <mxPoint x="1090" y="320" as="sourcePoint" />
            <mxPoint x="1140" y="270" as="targetPoint" />
          </mxGeometry>
        </mxCell>
        <mxCell id="zX8dJjemgJUIwj8gThUD-32" value="" style="endArrow=classic;html=1;rounded=0;entryX=1;entryY=0.5;entryDx=0;entryDy=0;exitX=0;exitY=0.5;exitDx=0;exitDy=0;" parent="1" source="zX8dJjemgJUIwj8gThUD-30" target="9PNcN-l9IglQEQbCvyNj-4" edge="1">
          <mxGeometry width="50" height="50" relative="1" as="geometry">
            <mxPoint x="860" y="390" as="sourcePoint" />
            <mxPoint x="910" y="340" as="targetPoint" />
          </mxGeometry>
        </mxCell>
        <mxCell id="zX8dJjemgJUIwj8gThUD-33" value="[Продолжить]" style="text;html=1;align=center;verticalAlign=middle;whiteSpace=wrap;rounded=0;rotation=0;" parent="1" vertex="1">
          <mxGeometry x="840" y="330" width="60" height="30" as="geometry" />
        </mxCell>
        <mxCell id="zX8dJjemgJUIwj8gThUD-34" value="" style="endArrow=classic;html=1;rounded=0;exitX=1;exitY=0.5;exitDx=0;exitDy=0;entryX=0.386;entryY=-0.024;entryDx=0;entryDy=0;entryPerimeter=0;" parent="1" source="zX8dJjemgJUIwj8gThUD-30" target="zX8dJjemgJUIwj8gThUD-35" edge="1">
          <mxGeometry width="50" height="50" relative="1" as="geometry">
            <mxPoint x="1130" y="500" as="sourcePoint" />
            <mxPoint x="1320" y="480" as="targetPoint" />
          </mxGeometry>
        </mxCell>
        <mxCell id="zX8dJjemgJUIwj8gThUD-35" value="Отчёт о заявках" style="swimlane;childLayout=stackLayout;horizontal=1;startSize=50;horizontalStack=0;rounded=1;fontSize=14;fontStyle=0;strokeWidth=2;resizeParent=0;resizeLast=1;shadow=0;dashed=0;align=center;arcSize=4;whiteSpace=wrap;html=1;" parent="1" vertex="1">
          <mxGeometry x="1088" y="480" width="360" height="170" as="geometry" />
        </mxCell>
        <mxCell id="zX8dJjemgJUIwj8gThUD-36" value="&lt;div&gt;do/откытие истории заявок&lt;/div&gt;do/добавление заявки&lt;div&gt;do/формирование отчёта&lt;/div&gt;&lt;div&gt;do/добавление в список аналитического отчёта&lt;/div&gt;&lt;div&gt;exit/закрытие аналитического отчёта&lt;/div&gt;" style="align=left;strokeColor=none;fillColor=none;spacingLeft=4;fontSize=12;verticalAlign=top;resizable=0;rotatable=0;part=1;html=1;" parent="zX8dJjemgJUIwj8gThUD-35" vertex="1">
          <mxGeometry y="50" width="360" height="120" as="geometry" />
        </mxCell>
        <mxCell id="zX8dJjemgJUIwj8gThUD-37" value="[Нет]" style="text;html=1;align=center;verticalAlign=middle;whiteSpace=wrap;rounded=0;rotation=5;" parent="1" vertex="1">
          <mxGeometry x="1226" y="410" width="60" height="30" as="geometry" />
        </mxCell>
        <mxCell id="zX8dJjemgJUIwj8gThUD-39" value="" style="rhombus;whiteSpace=wrap;html=1;" parent="1" vertex="1">
          <mxGeometry x="1140" y="787.5" width="256" height="45" as="geometry" />
        </mxCell>
        <mxCell id="zX8dJjemgJUIwj8gThUD-40" value="" style="endArrow=classic;html=1;rounded=0;entryX=0.5;entryY=0;entryDx=0;entryDy=0;exitX=0.5;exitY=1;exitDx=0;exitDy=0;" parent="1" source="zX8dJjemgJUIwj8gThUD-36" target="zX8dJjemgJUIwj8gThUD-39" edge="1">
          <mxGeometry width="50" height="50" relative="1" as="geometry">
            <mxPoint x="1310" y="770" as="sourcePoint" />
            <mxPoint x="1360" y="720" as="targetPoint" />
          </mxGeometry>
        </mxCell>
        <mxCell id="zX8dJjemgJUIwj8gThUD-41" value="" style="endArrow=none;html=1;rounded=0;entryX=0;entryY=0.5;entryDx=0;entryDy=0;" parent="1" target="zX8dJjemgJUIwj8gThUD-39" edge="1">
          <mxGeometry width="50" height="50" relative="1" as="geometry">
            <mxPoint x="1040" y="810" as="sourcePoint" />
            <mxPoint x="1090" y="770" as="targetPoint" />
          </mxGeometry>
        </mxCell>
        <mxCell id="zX8dJjemgJUIwj8gThUD-42" value="" style="endArrow=none;html=1;rounded=0;" parent="1" edge="1">
          <mxGeometry width="50" height="50" relative="1" as="geometry">
            <mxPoint x="1040" y="810" as="sourcePoint" />
            <mxPoint x="1040" y="570" as="targetPoint" />
          </mxGeometry>
        </mxCell>
        <mxCell id="zX8dJjemgJUIwj8gThUD-43" value="" style="endArrow=classic;html=1;rounded=0;entryX=0;entryY=0.25;entryDx=0;entryDy=0;" parent="1" target="zX8dJjemgJUIwj8gThUD-36" edge="1">
          <mxGeometry width="50" height="50" relative="1" as="geometry">
            <mxPoint x="1040" y="570" as="sourcePoint" />
            <mxPoint x="1100" y="550" as="targetPoint" />
          </mxGeometry>
        </mxCell>
        <mxCell id="zX8dJjemgJUIwj8gThUD-44" value="[Да]" style="text;html=1;align=center;verticalAlign=middle;whiteSpace=wrap;rounded=0;rotation=0;" parent="1" vertex="1">
          <mxGeometry x="1070" y="780" width="60" height="30" as="geometry" />
        </mxCell>
        <mxCell id="zX8dJjemgJUIwj8gThUD-45" value="" style="ellipse;html=1;shape=endState;fillColor=#000000;strokeColor=#ff0000;" parent="1" vertex="1">
          <mxGeometry x="90" y="870" width="70" height="70" as="geometry" />
        </mxCell>
        <mxCell id="zX8dJjemgJUIwj8gThUD-46" value="" style="endArrow=none;html=1;rounded=0;entryX=0.5;entryY=1;entryDx=0;entryDy=0;" parent="1" target="zX8dJjemgJUIwj8gThUD-39" edge="1">
          <mxGeometry width="50" height="50" relative="1" as="geometry">
            <mxPoint x="1278" y="890" as="sourcePoint" />
            <mxPoint x="1340" y="880" as="targetPoint" />
          </mxGeometry>
        </mxCell>
        <mxCell id="zX8dJjemgJUIwj8gThUD-47" value="" style="endArrow=classic;html=1;rounded=0;entryX=1;entryY=0.5;entryDx=0;entryDy=0;" parent="1" target="zX8dJjemgJUIwj8gThUD-45" edge="1">
          <mxGeometry width="50" height="50" relative="1" as="geometry">
            <mxPoint x="1280" y="890" as="sourcePoint" />
            <mxPoint x="1010" y="930" as="targetPoint" />
          </mxGeometry>
        </mxCell>
        <mxCell id="zX8dJjemgJUIwj8gThUD-48" value="" style="endArrow=classic;html=1;rounded=0;entryX=1;entryY=0;entryDx=0;entryDy=0;" parent="1" target="zX8dJjemgJUIwj8gThUD-45" edge="1">
          <mxGeometry width="50" height="50" relative="1" as="geometry">
            <mxPoint x="270" y="810" as="sourcePoint" />
            <mxPoint x="260" y="750" as="targetPoint" />
          </mxGeometry>
        </mxCell>
        <mxCell id="zX8dJjemgJUIwj8gThUD-49" value="" style="endArrow=classic;html=1;rounded=0;entryX=0.5;entryY=0;entryDx=0;entryDy=0;" parent="1" target="zX8dJjemgJUIwj8gThUD-45" edge="1">
          <mxGeometry width="50" height="50" relative="1" as="geometry">
            <mxPoint x="300" y="120" as="sourcePoint" />
            <mxPoint x="170" y="600" as="targetPoint" />
          </mxGeometry>
        </mxCell>
        <mxCell id="zX8dJjemgJUIwj8gThUD-50" value="[Нет]" style="text;html=1;align=center;verticalAlign=middle;whiteSpace=wrap;rounded=0;rotation=0;" parent="1" vertex="1">
          <mxGeometry x="1160" y="860" width="60" height="30" as="geometry" />
        </mxCell>
        <mxCell id="5eiR-fo7dtzpFfoEL9Su-3" value="Проверка на подлинность" style="swimlane;childLayout=stackLayout;horizontal=1;startSize=50;horizontalStack=0;rounded=1;fontSize=14;fontStyle=0;strokeWidth=2;resizeParent=0;resizeLast=1;shadow=0;dashed=0;align=center;arcSize=4;whiteSpace=wrap;html=1;" parent="1" vertex="1">
          <mxGeometry x="-60" y="325" width="210" height="125" as="geometry">
            <mxRectangle x="-30" y="120" width="180" height="50" as="alternateBounds" />
          </mxGeometry>
        </mxCell>
        <mxCell id="5eiR-fo7dtzpFfoEL9Su-4" value="entry/данные&lt;div&gt;do/проверка введённых данных&lt;/div&gt;&lt;div&gt;exit/отказ/подтверждение входа&lt;/div&gt;" style="align=left;strokeColor=none;fillColor=none;spacingLeft=4;fontSize=12;verticalAlign=top;resizable=0;rotatable=0;part=1;html=1;" parent="5eiR-fo7dtzpFfoEL9Su-3" vertex="1">
          <mxGeometry y="50" width="210" height="75" as="geometry" />
        </mxCell>
        <mxCell id="5eiR-fo7dtzpFfoEL9Su-6" value="" style="endArrow=classic;html=1;rounded=0;exitX=0.429;exitY=1.02;exitDx=0;exitDy=0;exitPerimeter=0;entryX=0.5;entryY=0;entryDx=0;entryDy=0;" parent="1" source="5eiR-fo7dtzpFfoEL9Su-4" target="9PNcN-l9IglQEQbCvyNj-16" edge="1">
          <mxGeometry width="50" height="50" relative="1" as="geometry">
            <mxPoint x="10" y="530" as="sourcePoint" />
            <mxPoint x="60" y="480" as="targetPoint" />
          </mxGeometry>
        </mxCell>
        <mxCell id="5eiR-fo7dtzpFfoEL9Su-7" value="[Нет]" style="text;html=1;align=center;verticalAlign=middle;whiteSpace=wrap;rounded=0;rotation=0;" parent="1" vertex="1">
          <mxGeometry x="-180" y="510" width="60" height="30" as="geometry" />
        </mxCell>
        <mxCell id="5eiR-fo7dtzpFfoEL9Su-8" value="[Да]" style="text;html=1;align=center;verticalAlign=middle;whiteSpace=wrap;rounded=0;" parent="1" vertex="1">
          <mxGeometry x="130" y="480" width="60" height="30" as="geometry" />
        </mxCell>
        <mxCell id="5eiR-fo7dtzpFfoEL9Su-10" value="Возникновение" style="text;html=1;align=center;verticalAlign=middle;whiteSpace=wrap;rounded=0;" parent="1" vertex="1">
          <mxGeometry x="460" y="460" width="60" height="30" as="geometry" />
        </mxCell>
        <mxCell id="5eiR-fo7dtzpFfoEL9Su-11" value="Вопроса" style="text;html=1;align=center;verticalAlign=middle;whiteSpace=wrap;rounded=0;" parent="1" vertex="1">
          <mxGeometry x="560" y="460" width="60" height="30" as="geometry" />
        </mxCell>
      </root>
    </mxGraphModel>
  </diagram>
</mxfile>
